<?xml version="1.0" encoding="utf-8"?>
<!-- Generator: Adobe Illustrator 16.0.4, SVG Export Plug-In . SVG Version: 6.00 Build 0)  -->
<!DOCTYPE svg PUBLIC "-//W3C//DTD SVG 1.1//EN" "http://www.w3.org/Graphics/SVG/1.1/DTD/svg11.dtd">
<svg version="1.1" id="Layer_1" xmlns="http://www.w3.org/2000/svg" xmlns:xlink="http://www.w3.org/1999/xlink" x="0px" y="0px"
	 width="25px" height="17px" viewBox="0 0 25 17" enable-background="new 0 0 25 17" xml:space="preserve">
<g>
	<path fill="#FFFFFF" d="M12.5,17C7.2,17,2.4,13.9,0.3,9.1L0,8.5l0.3-0.6C2.4,3.1,7.2,0,12.5,0c5.3,0,10.1,3.1,12.2,7.9L25,8.5
		l-0.3,0.6C22.6,13.9,17.8,17,12.5,17z M3.2,8.5c1.8,3.5,5.4,5.7,9.3,5.7c4,0,7.5-2.2,9.3-5.7C20,5,16.5,2.8,12.5,2.8
		C8.5,2.8,5,5,3.2,8.5z"/>
	<ellipse fill="#FFFFFF" cx="12.5" cy="8.4" rx="3.9" ry="3.8"/>
</g>
</svg>
