<?xml version="1.0" encoding="utf-8"?>
<!-- Generator: Adobe Illustrator 19.2.1, SVG Export Plug-In . SVG Version: 6.00 Build 0)  -->
<!DOCTYPE svg PUBLIC "-//W3C//DTD SVG 1.1//EN" "http://www.w3.org/Graphics/SVG/1.1/DTD/svg11.dtd">
<svg version="1.1" id="Layer_3" xmlns="http://www.w3.org/2000/svg" xmlns:xlink="http://www.w3.org/1999/xlink" x="0px" y="0px"
	 viewBox="0 0 82 23" style="enable-background:new 0 0 82 23;" xml:space="preserve">
<metadata><?xpacket begin="﻿" id="W5M0MpCehiHzreSzNTczkc9d"?>
<x:xmpmeta xmlns:x="adobe:ns:meta/" x:xmptk="Adobe XMP Core 5.6-c111 79.158366, 2015/09/25-01:12:00        ">
   <rdf:RDF xmlns:rdf="http://www.w3.org/1999/02/22-rdf-syntax-ns#">
      <rdf:Description rdf:about=""/>
   </rdf:RDF>
</x:xmpmeta>
                                                                                                    
                                                                                                    
                                                                                                    
                                                                                                    
                                                                                                    
                                                                                                    
                                                                                                    
                                                                                                    
                                                                                                    
                                                                                                    
                                                                                                    
                                                                                                    
                                                                                                    
                                                                                                    
                                                                                                    
                                                                                                    
                                                                                                    
                                                                                                    
                                                                                                    
                                                                                                    
                           
<?xpacket end="w"?></metadata>
<style type="text/css">
	.st0{fill:#FFFFFF;}
</style>
<g>
	<path class="st0" d="M17.4,9.1L17.4,9.1c1-1.3,2.2-1.9,3.7-1.9c1.7,0,3.1,0.7,3.9,2.2c0.8-1.5,2.3-2.2,3.9-2.2
		c2.9,0,3.9,1.9,3.9,4.6v7.5h-4.1v-5.6c0-1.2,0-3.2-1.7-3.2c-1.9,0-2,1.8-2,3.2v5.6H21v-5.6c0-1.3,0-3.3-1.8-3.3
		c-1.8,0-1.8,2-1.8,3.3v5.6h-4.1V7.6h4.1V9.1z"/>
	<path class="st0" d="M47.8,19.3h-4.1V18h0c-0.7,1.2-2.1,1.7-3.5,1.7c-3.4,0-5.8-2.9-5.8-6.3c0-3.4,2.4-6.2,5.8-6.2
		c1.3,0,2.7,0.5,3.6,1.5V7.6h4.1L47.8,19.3L47.8,19.3z M38.5,13.5c0,1.5,1,2.6,2.6,2.6c1.7,0,2.6-1.1,2.6-2.6c0-1.4-1-2.7-2.6-2.7
		C39.5,10.8,38.5,12,38.5,13.5"/>
	<polygon class="st0" points="55,19.3 50.9,19.3 50.9,11 49.6,11 49.6,7.6 50.9,7.6 50.9,4.1 55,4.1 55,7.6 57.3,7.6 57.3,11 55,11 
			"/>
	<path class="st0" d="M62.7,0.4v8.7h0c0.9-1.3,2.1-1.9,3.7-1.9c2.9,0,4.4,2,4.4,4.9v7.2h-4.1v-6c0-1.4-0.2-2.8-1.8-2.8
		c-1.6,0-2.1,1.4-2.1,2.8v6h-4.1v-19H62.7z"/>
	<path class="st0" d="M2.8,14.8c-0.7-0.3-1.2-1.2-1.2-2.4s0.5-2.1,1.2-2.4V1.9L1,2.7v7.6c-0.6,0.4-1,1.2-1,2.2c0,1,0.4,1.8,1,2.2
		v7.6L2.8,23V14.8z"/>
	<path class="st0" d="M2.8,14.8c-0.7-0.3-1.2-1.2-1.2-2.4s0.5-2.1,1.2-2.4V1.9L1,2.7v7.6c-0.6,0.4-1,1.2-1,2.2c0,1,0.4,1.8,1,2.2
		v7.6L2.8,23V14.8z"/>
	<path class="st0" d="M3.8,9.6C5.7,7.7,6,5,5.5,3.5L6.7,3c0.5,2.5-1.1,5.7-2.6,6.6C4,9.7,3.8,9.8,3.8,9.7C3.7,9.7,3.8,9.6,3.8,9.6"
		/>
	<path class="st0" d="M3.8,9.6C5.7,7.7,6,5,5.5,3.5L6.7,3c0.5,2.5-1.1,5.7-2.6,6.6C4,9.7,3.8,9.8,3.8,9.7C3.7,9.7,3.8,9.6,3.8,9.6"
		/>
	<path class="st0" d="M4.6,9.9c2.2-1.4,3-4.1,2.9-5.6l1.2-0.3c0.1,2.5-2.2,5.4-3.8,6c-0.1,0-0.3,0.1-0.3,0C4.5,10,4.6,9.9,4.6,9.9"
		/>
	<path class="st0" d="M4.6,9.9c2.2-1.4,3-4.1,2.9-5.6l1.2-0.3c0.1,2.5-2.2,5.4-3.8,6c-0.1,0-0.3,0.1-0.3,0C4.5,10,4.6,9.9,4.6,9.9"
		/>
	<path class="st0" d="M4.8,10.5c2.5-0.7,4-2.9,4.4-4.4l1.3,0.1C9.7,8.7,6.8,10.7,5,10.7c-0.1,0-0.3,0-0.3-0.1
		C4.7,10.6,4.8,10.5,4.8,10.5"/>
	<path class="st0" d="M4.8,10.5c2.5-0.7,4-2.9,4.4-4.4l1.3,0.1C9.7,8.7,6.8,10.7,5,10.7c-0.1,0-0.3,0-0.3-0.1
		C4.7,10.6,4.8,10.5,4.8,10.5"/>
	<path class="st0" d="M3.8,15.4c1.8,1.9,2.1,4.6,1.7,6l1.2,0.5c0.5-2.5-1.1-5.7-2.6-6.6c-0.1-0.1-0.3-0.1-0.3-0.1
		C3.7,15.3,3.8,15.4,3.8,15.4"/>
	<path class="st0" d="M3.8,15.4c1.8,1.9,2.1,4.6,1.7,6l1.2,0.5c0.5-2.5-1.1-5.7-2.6-6.6c-0.1-0.1-0.3-0.1-0.3-0.1
		C3.7,15.3,3.8,15.4,3.8,15.4"/>
	<path class="st0" d="M4.6,15c2.2,1.4,3,4.1,2.9,5.6l1.2,0.3c0.1-2.5-2.2-5.4-3.8-6c-0.1,0-0.3-0.1-0.3,0C4.5,14.9,4.6,15,4.6,15"/>
	<path class="st0" d="M4.6,15c2.2,1.4,3,4.1,2.9,5.6l1.2,0.3c0.1-2.5-2.2-5.4-3.8-6c-0.1,0-0.3-0.1-0.3,0C4.5,14.9,4.6,15,4.6,15"/>
	<path class="st0" d="M4.8,14.4c2.5,0.7,4,2.9,4.4,4.4l1.3-0.1c-0.7-2.4-3.7-4.5-5.5-4.5c-0.1,0-0.3,0-0.3,0.1
		C4.7,14.3,4.8,14.4,4.8,14.4"/>
	<path class="st0" d="M4.8,14.4c2.5,0.7,4,2.9,4.4,4.4l1.3-0.1c-0.7-2.4-3.7-4.5-5.5-4.5c-0.1,0-0.3,0-0.3,0.1
		C4.7,14.3,4.8,14.4,4.8,14.4"/>
	<path class="st0" d="M72.7,9.5l0.2-1c0-0.2,0-0.5,0.1-0.7l0.4-0.1l0.2,0.6c0.2,0.1,0.3,0.2,0.5,0.2c0.2,0,0.4-0.1,0.6-0.2
		c0.3-0.2,0.7-0.6,1.1-1.1c0.2-0.3,0.6-0.9,1.2-1.9c-0.3-1.9-0.6-3.1-0.9-3.6c-0.2-0.2-0.4-0.4-0.6-0.4c-0.2,0-0.4,0-0.5,0.1
		c-0.2,0.1-0.4,0.3-0.7,0.6L74,2.2L73.6,2l1.2-1.7c0.2-0.1,0.3-0.2,0.5-0.3C75.5,0.1,75.7,0,75.9,0c0.6,0,1.1,0.3,1.4,0.9
		c0.2,0.4,0.4,1.3,0.6,2.7L79,2c0.3-0.5,0.7-0.9,1-1.3c0.3-0.3,0.5-0.5,0.7-0.6C81,0.1,81.2,0,81.4,0c0.2,0,0.4,0.1,0.6,0.2
		c-0.1,0.5-0.2,1.1-0.3,1.7l-0.3,0.1c-0.1-0.2-0.2-0.3-0.3-0.4c-0.1-0.1-0.2-0.1-0.3-0.1c-0.2,0-0.4,0.1-0.6,0.2
		c-0.3,0.2-0.6,0.4-0.9,0.8c-0.2,0.2-0.6,0.8-1.3,1.8c0.2,1.3,0.4,2.2,0.5,2.7c0.2,0.7,0.4,1.2,0.6,1.4c0.1,0.2,0.3,0.2,0.5,0.2
		c0.2,0,0.4,0,0.6-0.1c0.2-0.1,0.5-0.3,0.9-0.6l0.2,0.4c-0.8,0.7-1.4,1.2-1.9,1.5c-0.2,0.1-0.5,0.2-0.7,0.2c-0.4,0-0.7-0.3-1-0.8
		S77.3,7.5,77.1,6c-1.1,1.8-1.9,2.9-2.5,3.4c-0.3,0.3-0.7,0.4-1.1,0.4C73.2,9.8,72.9,9.7,72.7,9.5"/>
</g>
</svg>
