<svg id="Layer_1" data-name="Layer 1" xmlns="http://www.w3.org/2000/svg" viewBox="0 0 239 59"><defs><style>.cls-1,.cls-2{fill:#fff;}.cls-2{font-size:30.12px;font-family:Myriad Pro;}.cls-3{fill:#007852;}.cls-4{fill:#231f20;}</style></defs><title>PL_logo</title><path class="cls-1" d="M63.67,2a43.55,43.55,0,0,1,7.19-.49c3.28,0,5.62.63,7.19,1.89a6.91,6.91,0,0,1,2.51,5.46,7.56,7.56,0,0,1-2.16,5.6c-1.82,1.72-4.51,2.49-7.65,2.49a13.16,13.16,0,0,1-1.82-.11v8.44H63.67V2Zm5.27,10.71a8.19,8.19,0,0,0,1.78.14c2.83,0,4.57-1.43,4.57-3.85,0-2.17-1.5-3.46-4.15-3.46a9.15,9.15,0,0,0-2.2.21v7Z" transform="translate(0 0)"/><path class="cls-1" d="M86.79,18.38c0.17,2.2,2.34,3.26,4.82,3.26a15,15,0,0,0,4.71-.7L97,24.54a16.78,16.78,0,0,1-6.18,1.05c-5.8,0-9.11-3.36-9.11-8.72,0-4.34,2.69-9.14,8.62-9.14C95.87,7.74,98,12,98,16.28a12.53,12.53,0,0,1-.18,2.1h-11ZM93,14.74c0-1.3-.56-3.47-3-3.47-2.23,0-3.14,2-3.28,3.47H93Z" transform="translate(0 0)"/><path class="cls-1" d="M101.48,13.76c0-2.52-.07-4.17-0.14-5.64h4.57l0.18,3.15h0.14a5,5,0,0,1,4.61-3.54,5.37,5.37,0,0,1,1.12.07v5a7.68,7.68,0,0,0-1.43-.14,3.41,3.41,0,0,0-3.63,2.7,6.25,6.25,0,0,0-.11,1.19v8.68h-5.31V13.76Z" transform="translate(0 0)"/><path class="cls-1" d="M117.32,25.24V12h-2.23V8.12h2.23V7.46a7.83,7.83,0,0,1,2.17-5.74A6.91,6.91,0,0,1,124.19,0,10.24,10.24,0,0,1,127,.35l-0.21,4.1a5.82,5.82,0,0,0-1.71-.24c-1.74,0-2.48,1.36-2.48,3V8.12H126V12h-3.39v13.2h-5.34Z" transform="translate(0 0)"/><path class="cls-1" d="M133.1,18.38c0.18,2.2,2.34,3.26,4.82,3.26a14.93,14.93,0,0,0,4.71-.7l0.7,3.61a16.79,16.79,0,0,1-6.18,1.05c-5.8,0-9.11-3.36-9.11-8.72,0-4.34,2.69-9.14,8.62-9.14,5.52,0,7.62,4.31,7.62,8.54a12.42,12.42,0,0,1-.18,2.1h-11Zm6.25-3.64c0-1.3-.56-3.47-3-3.47-2.23,0-3.14,2-3.28,3.47h6.29Z" transform="translate(0 0)"/><path class="cls-1" d="M160.86,24.82a12.89,12.89,0,0,1-4.75.77c-5.52,0-9-3.36-9-8.75,0-5,3.42-9.1,9.78-9.1a12.3,12.3,0,0,1,4.05.66l-0.84,4a7.23,7.23,0,0,0-3-.53,4.42,4.42,0,0,0-4.57,4.8,4.45,4.45,0,0,0,4.68,4.8,8.15,8.15,0,0,0,3-.53Z" transform="translate(0 0)"/><path class="cls-1" d="M171.35,3.22v4.9h3.8V12h-3.8v6.2c0,2.07.49,3,2.1,3a8.86,8.86,0,0,0,1.57-.14l0,4a10.42,10.42,0,0,1-3.46.45,5.52,5.52,0,0,1-4-1.47c-1-1-1.46-2.66-1.46-5.08V12h-2.27V8.12h2.27V4.41Z" transform="translate(0 0)"/><path class="cls-1" d="M184.41,3.36A2.67,2.67,0,0,1,181.54,6a2.6,2.6,0,0,1-2.76-2.66,2.6,2.6,0,0,1,2.79-2.7A2.67,2.67,0,0,1,184.41,3.36Zm-5.48,21.88V8.12h5.31V25.24h-5.31Z" transform="translate(0 0)"/><path class="cls-1" d="M205.45,16.49c0,6.27-4.44,9.14-9,9.14-5,0-8.84-3.29-8.84-8.82s3.63-9.07,9.11-9.07A8.32,8.32,0,0,1,205.45,16.49Zm-12.36.18c0,2.94,1.22,5.14,3.49,5.14,2.06,0,3.39-2.06,3.39-5.14,0-2.56-1-5.15-3.39-5.15S193.09,14.14,193.09,16.66Z" transform="translate(0 0)"/><path class="cls-1" d="M208.8,13.58c0-2.14-.07-4-0.13-5.46h4.6l0.25,2.34h0.1a6.26,6.26,0,0,1,5.27-2.73c3.49,0,6.11,2.31,6.11,7.35V25.24H219.7V15.75c0-2.2-.77-3.71-2.69-3.71a2.82,2.82,0,0,0-2.68,2,3.65,3.65,0,0,0-.21,1.33v9.87H208.8V13.58Z" transform="translate(0 0)"/><path class="cls-1" d="M63.67,33h2.14V46.86h7.07v1.68H63.67V33Z" transform="translate(0 0)"/><path class="cls-1" d="M91.17,41.27H84.74v5.59h7.17v1.68h-9.3V33h8.94v1.68h-6.8v4.9h6.43v1.66Z" transform="translate(0 0)"/><path class="cls-1" d="M105.56,43.66l-1.72,4.88h-2.21L107.25,33h2.58l5.65,15.51H113.2l-1.77-4.88h-5.87ZM111,42.1l-1.62-4.46c-0.37-1-.61-1.93-0.86-2.83h0c-0.24.92-.51,1.87-0.84,2.81L106,42.1h5Z" transform="translate(0 0)"/><path class="cls-1" d="M126.11,33.24a23.64,23.64,0,0,1,4.1-.32c2.28,0,3.76.39,4.79,1.26a3.76,3.76,0,0,1,1.3,2.95,4.11,4.11,0,0,1-3.12,4v0.07a3.9,3.9,0,0,1,2.43,3.13,23.37,23.37,0,0,0,1.28,4.26h-2.21a19.41,19.41,0,0,1-1.1-3.71c-0.49-2.14-1.38-2.94-3.31-3h-2v6.72h-2.14V33.24Zm2.14,7.06h2.18c2.28,0,3.73-1.17,3.73-2.94,0-2-1.55-2.88-3.81-2.9a9.44,9.44,0,0,0-2.11.18V40.3Z" transform="translate(0 0)"/><path class="cls-1" d="M148.39,48.54V33h2.33l5.3,7.85a43.23,43.23,0,0,1,3,5l0,0c-0.2-2.07-.25-4-0.25-6.37V33h2V48.54h-2.16l-5.26-7.87a49.5,49.5,0,0,1-3.09-5.18l-0.07,0c0.12,2,.17,3.82.17,6.4v6.63h-2Z" transform="translate(0 0)"/><path class="cls-1" d="M175.55,33V48.54h-2.14V33h2.14Z" transform="translate(0 0)"/><path class="cls-1" d="M188.15,48.54V33h2.33l5.3,7.85a43.22,43.22,0,0,1,3,5l0,0c-0.2-2.07-.25-4-0.25-6.37V33h2V48.54h-2.16l-5.26-7.87a49.13,49.13,0,0,1-3.09-5.18l-0.07,0c0.12,2,.17,3.82.17,6.4v6.63h-2Z" transform="translate(0 0)"/><path class="cls-1" d="M224.89,47.85a16.34,16.34,0,0,1-5.08.85,8.85,8.85,0,0,1-6.19-2.05,7.68,7.68,0,0,1-2.3-5.77c0-4.62,3.41-8,9-8a10.85,10.85,0,0,1,4.12.71l-0.52,1.63a9,9,0,0,0-3.66-.67c-4,0-6.65,2.35-6.65,6.23S216.1,47,220,47a7.34,7.34,0,0,0,2.85-.42V42h-3.37V40.39h5.45v7.46Z" transform="translate(0 0)"/><text class="cls-2" transform="translate(227.13 51.47)">®</text><path class="cls-3" d="M46.85,37.11V1.41H33.69a14.84,14.84,0,0,1,2.74,1.65,14.81,14.81,0,0,1,5.63,12c0,5-1.68,9.39-4.75,12.17a19.39,19.39,0,0,1-8.37,4.22v5.71H46.85Z" transform="translate(0 0)"/><path d="M17.64,32.16V48.58H46.85V37.11H28.94V31.4a33.45,33.45,0,0,1-8.08.91C19.62,32.31,18.45,32.24,17.64,32.16Z" transform="translate(0 0)"/><path class="cls-1" d="M20.86,32.31c6.65,0,12.43-1.54,16.45-5.13C40.38,24.39,42.06,20,42.06,15a14.81,14.81,0,0,0-5.63-12,14.84,14.84,0,0,0-2.74-1.65H4.56V48.58H17.64V32.16C18.45,32.24,19.62,32.31,20.86,32.31ZM17.64,9.44a20.23,20.23,0,0,1,4-.29c5,0,7.46,2.49,7.46,6.16,0,4.25-3.22,6.89-8.41,6.89a27.4,27.4,0,0,1-3-.15V9.44Z" transform="translate(0 0)"/><rect class="cls-3" y="1.41" width="4.39" height="47.16"/><path d="M29.05,15.3c0-3.67-2.49-6.16-7.46-6.16a20.23,20.23,0,0,0-4,.29V22a27.4,27.4,0,0,0,3,.15C25.83,22.19,29.05,19.56,29.05,15.3Z" transform="translate(0 0)"/><path class="cls-3" d="M63.67,2a43.55,43.55,0,0,1,7.19-.49c3.28,0,5.62.63,7.19,1.89a6.91,6.91,0,0,1,2.51,5.46,7.56,7.56,0,0,1-2.16,5.6c-1.82,1.72-4.51,2.49-7.65,2.49a13.16,13.16,0,0,1-1.82-.11v8.44H63.67V2Zm5.27,10.71a8.19,8.19,0,0,0,1.78.14c2.83,0,4.57-1.43,4.57-3.85,0-2.17-1.5-3.46-4.15-3.46a9.15,9.15,0,0,0-2.2.21v7Z" transform="translate(0 0)"/><path class="cls-3" d="M86.79,18.38c0.17,2.2,2.34,3.26,4.82,3.26a15,15,0,0,0,4.71-.7L97,24.54a16.78,16.78,0,0,1-6.18,1.05c-5.8,0-9.11-3.36-9.11-8.72,0-4.34,2.69-9.14,8.62-9.14C95.87,7.74,98,12,98,16.28a12.53,12.53,0,0,1-.18,2.1h-11ZM93,14.74c0-1.3-.56-3.47-3-3.47-2.23,0-3.14,2-3.28,3.47H93Z" transform="translate(0 0)"/><path class="cls-3" d="M101.48,13.76c0-2.52-.07-4.17-0.14-5.64h4.57l0.18,3.15h0.14a5,5,0,0,1,4.61-3.54,5.37,5.37,0,0,1,1.12.07v5a7.68,7.68,0,0,0-1.43-.14,3.41,3.41,0,0,0-3.63,2.7,6.25,6.25,0,0,0-.11,1.19v8.68h-5.31V13.76Z" transform="translate(0 0)"/><path class="cls-3" d="M117.32,25.24V12h-2.23V8.12h2.23V7.46a7.83,7.83,0,0,1,2.17-5.74A6.91,6.91,0,0,1,124.19,0,10.24,10.24,0,0,1,127,.35l-0.21,4.1a5.82,5.82,0,0,0-1.71-.24c-1.74,0-2.48,1.36-2.48,3V8.12H126V12h-3.39v13.2h-5.34Z" transform="translate(0 0)"/><path class="cls-3" d="M133.1,18.38c0.18,2.2,2.34,3.26,4.82,3.26a14.93,14.93,0,0,0,4.71-.7l0.7,3.61a16.79,16.79,0,0,1-6.18,1.05c-5.8,0-9.11-3.36-9.11-8.72,0-4.34,2.69-9.14,8.62-9.14,5.52,0,7.62,4.31,7.62,8.54a12.42,12.42,0,0,1-.18,2.1h-11Zm6.25-3.64c0-1.3-.56-3.47-3-3.47-2.23,0-3.14,2-3.28,3.47h6.29Z" transform="translate(0 0)"/><path class="cls-3" d="M160.86,24.82a12.89,12.89,0,0,1-4.75.77c-5.52,0-9-3.36-9-8.75,0-5,3.42-9.1,9.78-9.1a12.3,12.3,0,0,1,4.05.66l-0.84,4a7.23,7.23,0,0,0-3-.53,4.42,4.42,0,0,0-4.57,4.8,4.45,4.45,0,0,0,4.68,4.8,8.15,8.15,0,0,0,3-.53Z" transform="translate(0 0)"/><path class="cls-3" d="M171.35,3.22v4.9h3.8V12h-3.8v6.2c0,2.07.49,3,2.1,3a8.86,8.86,0,0,0,1.57-.14l0,4a10.42,10.42,0,0,1-3.46.45,5.52,5.52,0,0,1-4-1.47c-1-1-1.46-2.66-1.46-5.08V12h-2.27V8.12h2.27V4.41Z" transform="translate(0 0)"/><path class="cls-3" d="M184.41,3.36A2.67,2.67,0,0,1,181.54,6a2.6,2.6,0,0,1-2.76-2.66,2.6,2.6,0,0,1,2.79-2.7A2.67,2.67,0,0,1,184.41,3.36Zm-5.48,21.88V8.12h5.31V25.24h-5.31Z" transform="translate(0 0)"/><path class="cls-3" d="M205.45,16.49c0,6.27-4.44,9.14-9,9.14-5,0-8.84-3.29-8.84-8.82s3.63-9.07,9.11-9.07A8.32,8.32,0,0,1,205.45,16.49Zm-12.36.18c0,2.94,1.22,5.14,3.49,5.14,2.06,0,3.39-2.06,3.39-5.14,0-2.56-1-5.15-3.39-5.15S193.09,14.14,193.09,16.66Z" transform="translate(0 0)"/><path class="cls-3" d="M208.8,13.58c0-2.14-.07-4-0.13-5.46h4.6l0.25,2.34h0.1a6.26,6.26,0,0,1,5.27-2.73c3.49,0,6.11,2.31,6.11,7.35V25.24H219.7V15.75c0-2.2-.77-3.71-2.69-3.71a2.82,2.82,0,0,0-2.68,2,3.65,3.65,0,0,0-.21,1.33v9.87H208.8V13.58Z" transform="translate(0 0)"/><path class="cls-4" d="M63.67,33h2.14V46.86h7.07v1.68H63.67V33Z" transform="translate(0 0)"/><path class="cls-4" d="M91.17,41.27H84.74v5.59h7.17v1.68h-9.3V33h8.94v1.68h-6.8v4.9h6.43v1.66Z" transform="translate(0 0)"/><path class="cls-4" d="M105.56,43.66l-1.72,4.88h-2.21L107.25,33h2.58l5.65,15.51H113.2l-1.77-4.88h-5.87ZM111,42.1l-1.62-4.46c-0.37-1-.61-1.93-0.86-2.83h0c-0.24.92-.51,1.87-0.84,2.81L106,42.1h5Z" transform="translate(0 0)"/><path class="cls-4" d="M126.11,33.24a23.64,23.64,0,0,1,4.1-.32c2.28,0,3.76.39,4.79,1.26a3.76,3.76,0,0,1,1.3,2.95,4.11,4.11,0,0,1-3.12,4v0.07a3.9,3.9,0,0,1,2.43,3.13,23.37,23.37,0,0,0,1.28,4.26h-2.21a19.41,19.41,0,0,1-1.1-3.71c-0.49-2.14-1.38-2.94-3.31-3h-2v6.72h-2.14V33.24Zm2.14,7.06h2.18c2.28,0,3.73-1.17,3.73-2.94,0-2-1.55-2.88-3.81-2.9a9.44,9.44,0,0,0-2.11.18V40.3Z" transform="translate(0 0)"/><path class="cls-4" d="M148.39,48.54V33h2.33l5.3,7.85a43.23,43.23,0,0,1,3,5l0,0c-0.2-2.07-.25-4-0.25-6.37V33h2V48.54h-2.16l-5.26-7.87a49.5,49.5,0,0,1-3.09-5.18l-0.07,0c0.12,2,.17,3.82.17,6.4v6.63h-2Z" transform="translate(0 0)"/><path class="cls-4" d="M175.55,33V48.54h-2.14V33h2.14Z" transform="translate(0 0)"/><path class="cls-4" d="M188.15,48.54V33h2.33l5.3,7.85a43.22,43.22,0,0,1,3,5l0,0c-0.2-2.07-.25-4-0.25-6.37V33h2V48.54h-2.16l-5.26-7.87a49.13,49.13,0,0,1-3.09-5.18l-0.07,0c0.12,2,.17,3.82.17,6.4v6.63h-2Z" transform="translate(0 0)"/><path class="cls-4" d="M224.89,47.85a16.34,16.34,0,0,1-5.08.85,8.85,8.85,0,0,1-6.19-2.05,7.68,7.68,0,0,1-2.3-5.77c0-4.62,3.41-8,9-8a10.85,10.85,0,0,1,4.12.71l-0.52,1.63a9,9,0,0,0-3.66-.67c-4,0-6.65,2.35-6.65,6.23S216.1,47,220,47a7.34,7.34,0,0,0,2.85-.42V42h-3.37V40.39h5.45v7.46Z" transform="translate(0 0)"/><path class="cls-4" d="M236.82,35.45a4.09,4.09,0,1,1-4.08-4A4,4,0,0,1,236.82,35.45Zm-7.16,0a3.09,3.09,0,0,0,3.1,3.18,3,3,0,0,0,3-3.16A3.07,3.07,0,1,0,229.66,35.45Zm2.45,2.09h-0.93v-4a8.06,8.06,0,0,1,1.53-.12,2.5,2.5,0,0,1,1.39.29,1.14,1.14,0,0,1,.38.88,1,1,0,0,1-.83.93v0a1.18,1.18,0,0,1,.73,1,3.12,3.12,0,0,0,.29,1h-1a3.55,3.55,0,0,1-.31-1,0.7,0.7,0,0,0-.82-0.63h-0.44v1.6Zm0-2.26h0.43c0.52,0,.92-0.17.92-0.58s-0.27-.6-0.85-0.6a2.36,2.36,0,0,0-.51,0v1.14Z" transform="translate(0 0)"/></svg>