<?xml version="1.0" encoding="utf-8"?>
<!-- Generator: Adobe Illustrator 16.0.4, SVG Export Plug-In . SVG Version: 6.00 Build 0)  -->
<!DOCTYPE svg PUBLIC "-//W3C//DTD SVG 1.1//EN" "http://www.w3.org/Graphics/SVG/1.1/DTD/svg11.dtd">
<svg version="1.1" id="Layer_2" xmlns="http://www.w3.org/2000/svg" xmlns:xlink="http://www.w3.org/1999/xlink" x="0px" y="0px"
	 width="104px" height="28px" viewBox="0 0 104 28" enable-background="new 0 0 104 28" xml:space="preserve">
<g>
	<path fill="#FFFFFF" d="M8.5,9.4H4.8V6.7h6.8L18.4,23h-3.2L14,19.9H7L5.8,23H2.6L8.5,9.4z M12.9,17.2l-2.4-5.9l-2.4,5.9H12.9z"/>
	<path fill="#FFFFFF" d="M21,6.3l7.3,7.3l7.3-7.3V23h-3V12.9l-4.2,4.4L24,12.9V23h-3V6.3z"/>
	<path fill="#FFFFFF" d="M40.9,18.3c1.2,1.3,2.9,2.2,4.8,2.2c2.3,0,3.9-0.9,3.9-2.4c0-3.6-10.5-0.1-10.5-6.8c0-2.9,3-4.9,6.8-4.9
		c2.7,0,4.9,0.9,6.5,2.5l-2.2,2c-1.5-1.5-2.8-2-4.4-2c-2.5,0-3.4,1.2-3.4,2.2c0,3.7,10.5,0,10.5,6.8c0,3.4-3.5,5.5-7.2,5.5
		c-2.3,0-4.9-0.9-7-3L40.9,18.3z"/>
	<path fill="#FFFFFF" d="M71.1,20c-1.8,2.3-4.4,3.4-7,3.4c-4.9,0-8.8-3.7-8.8-8.5s3.9-8.5,8.8-8.5c2.6,0,5.1,1.1,7,3.4l-2.5,1.9
		c-1-1.5-2.6-2.4-4.5-2.4c-2.9,0-5.6,2.5-5.6,5.6c0,3.2,2.7,5.6,5.6,5.6c1.8,0,3.5-0.9,4.5-2.3L71.1,20z"/>
	<path fill="#FFFFFF" d="M82.1,6.3c4.9,0,8.8,3.7,8.8,8.5s-3.9,8.5-8.8,8.5c-4.9,0-8.8-3.7-8.8-8.5S77.2,6.3,82.1,6.3z M82.1,20.5
		c2.9,0,5.6-2.5,5.6-5.6c0-3.2-2.7-5.6-5.6-5.6c-2.9,0-5.6,2.5-5.6,5.6C76.5,18,79.2,20.5,82.1,20.5z"/>
</g>
<path fill="#FFFFFF" d="M99.7,13c0.6-0.2,1-0.6,1.4-1s0.7-0.9,1-1.4c0.2-0.6,0.4-1.1,0.4-1.8c0-0.6-0.1-1.2-0.4-1.8
	c-0.2-0.6-0.6-1-1-1.4c-0.4-0.4-0.9-0.7-1.4-1s-1.1-0.4-1.8-0.4c-0.6,0-1.2,0.1-1.8,0.4c-0.6,0.2-1,0.6-1.4,1C94.3,6,94,6.4,93.7,7
	c-0.2,0.6-0.4,1.1-0.4,1.8c0,0.6,0.1,1.2,0.4,1.8c0.2,0.6,0.6,1,1,1.4s0.9,0.7,1.4,1c0.6,0.2,1.1,0.4,1.8,0.4
	C98.5,13.3,99.1,13.2,99.7,13z M96.4,12.4c-0.5-0.2-0.9-0.5-1.2-0.8c-0.3-0.4-0.6-0.8-0.8-1.3c-0.2-0.5-0.3-1-0.3-1.6
	c0-0.6,0.1-1.1,0.3-1.5s0.5-0.9,0.8-1.2s0.7-0.6,1.2-0.8c0.5-0.2,1-0.3,1.5-0.3c0.6,0,1.1,0.1,1.5,0.3s0.9,0.5,1.2,0.8
	s0.6,0.8,0.8,1.2s0.3,1,0.3,1.5c0,0.6-0.1,1.1-0.3,1.6c-0.2,0.5-0.5,0.9-0.8,1.3c-0.3,0.4-0.7,0.6-1.2,0.8c-0.5,0.2-1,0.3-1.5,0.3
	C97.4,12.7,96.8,12.6,96.4,12.4z M98.6,9c0.2,0,0.4,0,0.6-0.1s0.4-0.1,0.5-0.2c0.1-0.1,0.3-0.2,0.3-0.4c0.1-0.2,0.1-0.4,0.1-0.6
	c0-0.4-0.1-0.7-0.4-1c-0.3-0.2-0.7-0.4-1.4-0.4h-2.2v5.1h0.6V9H98l1.5,2.3h0.7L98.6,9z M96.8,8.5V6.7h1.5c0.2,0,0.3,0,0.5,0
	c0.2,0,0.3,0.1,0.4,0.1c0.1,0.1,0.2,0.1,0.3,0.3c0.1,0.1,0.1,0.3,0.1,0.5c0,0.3-0.1,0.4-0.2,0.6c-0.1,0.1-0.3,0.2-0.4,0.3
	c-0.2,0-0.4,0.1-0.6,0.1c-0.2,0-0.4,0-0.6,0H96.8z"/>
</svg>
